PathFileType	4	(X/Y/Z)	D:\TRACE\spotREDO_2-26-24\spot_baseline_4-platform.trc
DataRate	CameraRate	NumFrames	NumMarkers	Units	OrigDataRate	OrigDataStartFrame	OrigNumFrames
100.00	100.00	      25	5	mm	100.00	6126	      7000
Frame#	Time	Left_Front			Right_Front			Left_Aft			Right_Aft			Post			
		X1	Y1	Z1	X2	Y2	Z2	X3	Y3	Z3	X4	Y4	Z4	X5	Y5	Z5	

6126	61.250	-696.85602	-4.01810	-575.60291	718.07971	5.11475	-490.99777	-768.28094	5.05612	643.39001	801.21429	11.01506	647.46191	4.45697	741.42627	-982.81995	
6127	61.260	-696.84369	-4.02714	-575.61407	718.18286	4.88824	-490.76846	-768.26575	5.00954	643.45270	801.24658	11.37101	647.86487	4.36598	741.44312	-982.77600	
6128	61.270	-696.83862	-4.03508	-575.64874	718.11505	5.10769	-490.97644	-768.25403	5.08909	643.39581	801.29034	11.00007	647.45306	4.37515	741.41382	-982.79883	
6129	61.280	-696.84601	-3.96553	-575.62079	718.25342	4.97892	-490.79956	-768.19342	5.16035	643.44263	801.28351	11.38995	647.87762	4.39375	741.41626	-982.78485	
6130	61.290	-696.84326	-4.01945	-575.66821	718.21478	5.04663	-490.76230	-768.21063	5.11332	643.42932	801.32690	11.77954	647.89618	4.37880	741.40253	-982.78613	
6131	61.300	-696.83044	-3.97650	-575.64508	718.07556	5.06071	-490.97366	-768.25903	5.02643	643.41046	801.32214	11.68298	647.92352	4.35987	741.39587	-982.79590	
6132	61.310	-696.86633	-4.00623	-575.64276	718.18414	4.84855	-490.82159	-768.25073	5.10293	643.48322	801.21210	11.09613	647.61316	4.45791	741.41858	-982.92102	
6133	61.320	-696.84424	-3.97195	-575.64526	718.23346	4.87868	-490.78506	-768.22333	4.93494	643.45709	801.28119	11.14728	647.56812	4.42661	741.46710	-982.89197	
6134	61.330	-696.82843	-3.96925	-575.64050	718.24451	4.90518	-490.76733	-768.23053	4.86246	643.56232	801.31885	11.20827	647.59729	4.40793	741.44415	-982.94135	
6135	61.340	-696.81110	-3.99540	-575.66077	718.21613	5.01640	-490.76953	-768.17670	5.06513	643.56830	801.24402	11.43905	647.86896	4.46971	741.41052	-982.93964	
6136	61.350	-696.80566	-4.01473	-575.65338	718.22620	4.95321	-490.74274	-768.23474	5.04686	643.58270	801.31586	11.43610	647.84363	4.35581	741.46490	-982.80469	
6137	61.360	-696.80743	-4.01760	-575.68036	718.28937	4.94240	-490.73257	-768.19128	5.11905	643.56342	801.26941	11.50530	647.79620	4.38301	741.44647	-982.81567	
6138	61.370	-696.84668	-3.94186	-575.66772	718.21545	4.92286	-490.78165	-768.17535	4.86852	643.53302	801.19739	11.35727	647.81531	4.37670	741.45831	-982.71710	
6139	61.380	-696.82495	-4.02848	-575.68719	718.02789	4.98028	-490.97961	-768.42621	5.20334	643.33698	801.24384	11.38081	647.79858	4.37237	741.43402	-982.67676	
6140	61.390	-696.83527	-3.98525	-575.66510	718.06378	5.04163	-491.00092	-768.16931	4.89522	643.54077	801.22272	11.50146	647.84064	4.37532	741.38062	-982.70911	
6141	61.400	-696.85431	-4.01755	-575.64441	718.09619	5.06583	-490.91199	-768.18469	4.91766	643.53473	801.23090	11.40857	647.86371	4.41409	741.42004	-982.75281	
6142	61.410	-696.81018	-3.98448	-575.63403	718.30908	4.95684	-490.73499	-768.11566	5.10041	643.70355	801.34204	11.47942	647.87799	4.41259	741.43304	-982.80396	
6143	61.420	-696.84705	-3.93391	-575.64600	718.13800	5.18453	-490.88672	-768.14435	4.90261	643.54407	801.22375	11.41119	647.85339	4.46593	741.41278	-982.87201	
6144	61.430	-696.84106	-3.91640	-575.65710	718.07184	5.15439	-490.92688	-768.20404	4.82739	643.52710	801.25623	11.09787	647.52588	4.46542	741.41162	-982.95471	
6145	61.440	-696.83496	-3.97718	-575.64099	718.16296	4.85103	-490.82501	-768.18073	4.82077	643.49872	801.26044	11.05908	647.46667	4.45206	741.43878	-982.93402	
6146	61.450	-696.85388	-3.91796	-575.66187	718.18005	4.89194	-490.79990	-768.16962	4.85621	643.52448	801.18018	11.42334	647.84467	4.40392	741.40820	-982.92957	
6147	61.460	-696.83777	-3.92735	-575.66479	718.11816	5.20202	-490.90927	-768.19110	4.92693	643.55774	801.26233	11.50571	647.86517	4.41219	741.42212	-982.84033	
6148	61.470	-696.78400	-3.93191	-575.65149	718.24426	4.92964	-490.74088	-768.14923	4.94215	643.53687	801.30109	11.50645	647.85681	4.40683	741.47864	-982.73364	
6149	61.480	-696.84998	-3.92034	-575.68054	718.26123	4.91217	-490.75854	-768.16284	4.90283	643.53333	801.26453	11.42044	647.79938	4.40736	741.41791	-982.73212	
6150	61.490	-696.84656	-3.95130	-575.66669	718.15558	4.83700	-490.81284	-768.16046	4.84392	643.51038	801.20636	11.38524	647.79358	4.38926	741.41669	-982.71155	
